<svg width="512" height="512" viewBox="0 0 512 512" fill="none" xmlns="http://www.w3.org/2000/svg">
<rect width="512" height="512" fill="white"/>
<path d="M88 378L349 378" stroke="#424242" stroke-width="28" stroke-linecap="round" stroke-dasharray="56 56"/>
<circle cx="250.5" cy="193.5" r="137" stroke="#424242" stroke-width="13"/>
<path d="M407.932 389.258L397.103 380.385L407.932 389.258ZM89 415C81.268 415 75 421.268 75 429C75 436.732 81.268 443 89 443V415ZM417.882 331.853L405.215 337.817L417.882 331.853ZM304.386 443C331.601 443 382.375 442.542 418.762 398.131L397.103 380.385C369.739 413.783 331.706 415 304.386 415V443ZM304.386 415H89V443H304.386V415ZM418.762 398.131C424.164 391.537 431.114 381.919 434.669 369.616C438.352 356.866 438.153 342.041 430.548 325.889L405.215 337.817C409.825 347.607 409.627 355.413 407.769 361.845C405.782 368.722 401.649 374.836 397.103 380.385L418.762 398.131ZM430.548 325.889C422.568 308.942 407.7 294.793 395.626 284.711C389.452 279.555 383.516 275.074 379.144 271.709C376.889 269.974 375.151 268.614 373.854 267.524C372.31 266.226 372.277 266.034 372.696 266.592L350.308 283.408C352.002 285.663 354.275 287.645 355.84 288.96C357.653 290.484 359.83 292.177 362.068 293.9C366.682 297.45 372.047 301.5 377.679 306.203C389.22 315.84 399.991 326.722 405.215 337.817L430.548 325.889Z" fill="#424242"/>
</svg>
